<?xml version="1.0" encoding="UTF-8" standalone="no"?>
<!-- Created with Inkscape (http://www.inkscape.org/) -->

<svg
   width="1485"
   height="1485"
   viewBox="0 0 392.90619 392.90619"
   version="1.1"
   id="svg1"
   xml:space="preserve"
   xmlns:xlink="http://www.w3.org/1999/xlink"
   xmlns="http://www.w3.org/2000/svg"
   xmlns:svg="http://www.w3.org/2000/svg"><defs
     id="defs1"><linearGradient
       id="linearGradient4"><stop
         style="stop-color:#7b7b7b;stop-opacity:1;"
         offset="0"
         id="stop4" /><stop
         style="stop-color:#ffffff;stop-opacity:1;"
         offset="1"
         id="stop5" /></linearGradient><radialGradient
       xlink:href="#linearGradient4"
       id="radialGradient5"
       cx="17.008924"
       cy="157.2464"
       fx="17.008924"
       fy="157.2464"
       r="197.38638"
       gradientTransform="matrix(4.9683478,-1.8315752,1.1125515,3.0064729,-66.743078,-211.42878)"
       gradientUnits="userSpaceOnUse" /></defs><g
     id="layer1"
     transform="translate(68.195713,125.76606)"
     style="display:inline"><path
       d="m 323.88683,123.54822 -22.87446,53.20093 c -0.82431,1.91716 -2.25454,3.48014 -4.2907,4.68908 -2.03617,1.20889 -4.08333,1.56171 -6.14152,1.05852 l -47.30394,-12.31566 c -6.75067,7.32454 -12.99748,13.2568 -18.74046,17.79677 2.1678,10.38778 5.99167,25.07938 11.47166,44.0749 0.77637,2.60275 0.71806,4.94258 -0.17497,7.0195 -0.89301,2.07691 -2.40327,3.60566 -4.53081,4.58623 -6.86345,4.06006 -18.49617,9.29346 -34.8982,15.70022 -16.40206,6.40674 -26.36381,8.85592 -29.8853,7.3476 -1.92082,-0.82274 -3.6926,-2.43295 -5.31533,-4.83068 l -22.00596,-40.07365 c -8.62291,0.65786 -17.21113,0.57382 -25.76473,-0.2522 -11.9032,20.63072 -20.61256,34.4945 -26.128046,41.59133 -3.043857,3.99344 -6.88677,4.99602 -11.528746,3.00776 L 22.47276,243.31814 c -2.240947,-0.95985 -3.909837,-2.47875 -5.006671,-4.5566 -1.096826,-2.07787 -1.278779,-4.18955 -0.545852,-6.33501 L 29.156403,185.45251 C 22.41215,179.53682 16.479893,173.49596 11.35964,167.32993 l -44.879457,11.14124 c -2.218907,0.75227 -4.528868,0.61419 -6.929887,-0.41423 -2.240955,-0.95986 -3.864003,-2.69556 -4.869137,-5.20712 -12.337654,-26.85163 -19.773126,-45.92795 -22.306404,-57.22901 -0.433561,-2.07757 -0.203839,-4.15479 0.689162,-6.23171 0.824306,-1.91715 2.254535,-3.48017 4.290692,-4.68906 9.351228,-5.660537 28.256316,-15.388432 39.326934,-22.032846 -0.887231,-9.839278 -0.768363,-19.153026 0.356572,-27.94124 L -64.118482,29.435568 c -1.943496,-1.210824 -3.194886,-2.929218 -3.754168,-5.155212 -0.55927,-2.225999 -0.392405,-4.377456 0.500592,-6.454369 l 22.874466,-53.200913 c 0.824306,-1.917148 2.254533,-3.480178 4.290689,-4.68908 2.036157,-1.208894 4.003303,-1.59602 5.901439,-1.161374 l 47.544025,12.418502 c 5.400788,-6.389227 11.681949,-12.401365 18.843488,-18.036411 -2.487273,-11.848907 -6.311153,-26.540539 -11.471643,-44.074896 -0.776372,-2.602758 -0.752407,-4.862713 0.0719,-6.779868 0.686921,-1.597623 2.197188,-3.126357 4.530794,-4.586217 6.63468,-3.9689 18.210221,-9.17949 34.726634,-15.63183 16.516413,-6.45235 26.535368,-8.92434 30.056869,-7.41601 2.080879,0.8913 3.8183,2.58141 5.212263,5.07031 l 22.108974,39.834021 c 8.62293,-0.657852 17.21117,-0.573814 25.76473,0.252123 11.9032,-20.630704 20.61255,-34.494514 26.12806,-41.591344 3.04385,-3.99342 6.88676,-4.99599 11.52873,-3.00774 l 53.30262,22.83083 c 2.24094,0.95985 3.90984,2.478734 5.00667,4.556599 1.09684,2.077869 1.27878,4.189544 0.54586,6.33502 l -12.23618,46.974008 c 6.74428,5.915695 12.67654,11.95655 17.79677,18.122561 l 45.11957,-11.038388 c 2.05885,-0.820813 4.28877,-0.717012 6.68977,0.311399 2.08091,0.891299 3.7383,2.547125 4.9722,4.967478 12.47441,27.8561127 19.84119,47.092209 22.10033,57.708298 0.57094,1.758028 0.37555,3.755377 -0.58613,5.99205 -0.8243,1.917151 -2.25453,3.480178 -4.29071,4.689079 -9.35976,5.665709 -28.24652,15.382563 -39.32694,22.032838 0.72718,9.770715 0.64266,19.004584 -0.25351,27.7016 l 41.05362,25.529998 c 1.9435,1.21084 3.19487,2.92924 3.75419,5.15523 0.55924,2.226 0.3924,4.37744 -0.50061,6.45437 z"
       id="path3029"
       style="fill:url(#radialGradient5);fill-opacity:1;stroke-width:0.261027" /><path
       id="path2"
       style="display:inline;fill:#1c2224;stroke:none;stroke-width:0.310702"
       d="m 43.869141,-40.876953 c -22.558237,0 -40.7636723,18.20543 -40.7636722,40.76367175 V 135.14453 H 36.039062 v 31.77539 h 29.996094 v 28.63867 H 189.12109 v -28.63867 h 29.9961 v -31.77539 h 36.61914 V -0.11328125 c 0,-22.55986175 -18.20739,-40.76367175 -40.76563,-40.76367175 z"
       transform="matrix(0.92377141,0,0,0.92377141,8.7020862,8.7418264)" /><path
       id="rect1"
       style="display:inline;fill:#ffffff;fill-opacity:1;stroke:none;stroke-width:0.287018"
       d="m 49.228073,-13.729923 c -12.391841,0 -22.367701,9.976426 -22.367701,22.3682685 V 118.29571 h 30.423912 v 29.35247 h 27.708752 v 26.45587 h 83.125684 v -26.45587 h 27.70874 v -29.35247 h 33.82699 V 8.6383455 c 0,-12.3918425 -9.9764,-22.3682685 -22.36825,-22.3682685 z M 46.765611,4.2311829 H 73.100769 V 59.734029 H 46.765611 Z m 45.196442,0 H 118.29722 V 59.734029 H 91.962053 Z m 45.197017,0 h 26.3346 V 59.734029 h -26.3346 z m 45.19645,0 h 26.33516 V 59.734029 h -26.33516 z" /></g></svg>
